<svg width="221" height="221" viewBox="0 0 221 221" fill="none" xmlns="http://www.w3.org/2000/svg">
<path d="M219.399 168.667V202.733C219.399 211.895 212.027 219.267 202.866 219.267H168.8V168.667H219.399ZM149.267 168.667V219.267H81.1328V168.667H149.267ZM219.399 81V149.134H168.8V81H219.399ZM149.267 81V149.134H81.1328V81H149.267Z" fill="#FBBB63" stroke="#E27C00" stroke-width="2" stroke-linejoin="round"/>
<path d="M51.5996 158.667V209.267H17.5332C8.3721 209.267 1.00003 201.895 1 192.733V158.667H51.5996ZM51.5996 71V139.134H1V71H51.5996Z" fill="#004360" stroke="black" stroke-width="2" stroke-linejoin="round"/>
<path d="M192.866 1C202.027 1.00003 209.399 8.3721 209.399 17.5332V51.5996H158.8V1H192.866ZM139.267 1V51.5996H71.1328V1H139.267Z" fill="#004360" stroke="black" stroke-width="2" stroke-linejoin="round"/>
<path d="M17.5332 1H51.5996V51.5996H1V17.5332C1.00007 8.37212 8.37212 1.00007 17.5332 1Z" fill="#FBBB63" stroke="#E27C00" stroke-width="2" stroke-linejoin="round"/>
</svg>
